<svg width="47" height="21" viewBox="0 0 47 21" fill="none" xmlns="http://www.w3.org/2000/svg">
<path d="M13.852 12.33H8.93796V17.374H5.50596V12.33H0.591961V9.158H5.50596V4.114H8.93796V9.158H13.852V12.33ZM27.1855 5.778C27.0122 5.05 26.7088 4.504 26.2755 4.14C25.8595 3.776 25.2528 3.594 24.4555 3.594C23.2595 3.594 22.3755 4.07933 21.8035 5.05C21.2488 6.00333 20.9628 7.56333 20.9455 9.73C21.3615 9.03667 21.9682 8.49933 22.7655 8.118C23.5628 7.71933 24.4295 7.52 25.3655 7.52C26.4922 7.52 27.4888 7.76267 28.3555 8.248C29.2222 8.73333 29.8982 9.444 30.3835 10.38C30.8688 11.2987 31.1115 12.408 31.1115 13.708C31.1115 14.9387 30.8602 16.0393 30.3575 17.01C29.8722 17.9633 29.1528 18.7087 28.1995 19.246C27.2462 19.7833 26.1108 20.052 24.7935 20.052C22.9908 20.052 21.5695 19.6533 20.5295 18.856C19.5068 18.0587 18.7875 16.9493 18.3715 15.528C17.9728 14.0893 17.7735 12.3213 17.7735 10.224C17.7735 7.052 18.3195 4.66 19.4115 3.048C20.5035 1.41867 22.2282 0.603999 24.5855 0.603999C26.4055 0.603999 27.8182 1.098 28.8235 2.086C29.8288 3.074 30.4095 4.30467 30.5655 5.778H27.1855ZM24.5335 10.51C23.6148 10.51 22.8435 10.7787 22.2195 11.316C21.5955 11.8533 21.2835 12.6333 21.2835 13.656C21.2835 14.6787 21.5695 15.4847 22.1415 16.074C22.7308 16.6633 23.5542 16.958 24.6115 16.958C25.5475 16.958 26.2842 16.672 26.8215 16.1C27.3762 15.528 27.6535 14.7567 27.6535 13.786C27.6535 12.7807 27.3848 11.9833 26.8475 11.394C26.3275 10.8047 25.5562 10.51 24.5335 10.51ZM35.1324 15.892C36.7964 14.5053 38.1224 13.3527 39.1104 12.434C40.0984 11.498 40.9217 10.5273 41.5804 9.522C42.239 8.51667 42.5684 7.52867 42.5684 6.558C42.5684 5.674 42.3604 4.98067 41.9444 4.478C41.5284 3.97533 40.887 3.724 40.0204 3.724C39.1537 3.724 38.4864 4.01867 38.0184 4.608C37.5504 5.18 37.3077 5.96867 37.2904 6.974H33.7544C33.8237 4.894 34.439 3.31667 35.6004 2.242C36.779 1.16733 38.2697 0.629998 40.0724 0.629998C42.0484 0.629998 43.565 1.15867 44.6224 2.216C45.6797 3.256 46.2084 4.634 46.2084 6.35C46.2084 7.702 45.8444 8.99333 45.1164 10.224C44.3884 11.4547 43.5564 12.5293 42.6204 13.448C41.6844 14.3493 40.4624 15.4413 38.9544 16.724H46.6244V19.74H33.7804V17.036L35.1324 15.892Z" fill="black"/>
</svg>
