<svg width="32" height="26" viewBox="0 0 32 26" fill="none" xmlns="http://www.w3.org/2000/svg">
<path d="M9.51533 19L5.51133 11.928H3.79533V19H0.155328V0.852H6.96733C8.37133 0.852 9.56733 1.10333 10.5553 1.606C11.5433 2.09133 12.28 2.75867 12.7653 3.608C13.268 4.44 13.5193 5.376 13.5193 6.416C13.5193 7.612 13.1727 8.69533 12.4793 9.666C11.786 10.6193 10.7547 11.278 9.38533 11.642L13.7273 19H9.51533ZM3.79533 9.198H6.83733C7.82533 9.198 8.562 8.964 9.04733 8.496C9.53266 8.01067 9.77533 7.34333 9.77533 6.494C9.77533 5.662 9.53266 5.02067 9.04733 4.57C8.562 4.102 7.82533 3.868 6.83733 3.868H3.79533V9.198ZM20.4516 6.676C20.9196 6.01733 21.5609 5.47133 22.3756 5.038C23.2076 4.58733 24.1522 4.362 25.2096 4.362C26.4402 4.362 27.5496 4.66533 28.5376 5.272C29.5429 5.87867 30.3316 6.74533 30.9036 7.872C31.4929 8.98133 31.7876 10.2727 31.7876 11.746C31.7876 13.2193 31.4929 14.528 30.9036 15.672C30.3316 16.7987 29.5429 17.674 28.5376 18.298C27.5496 18.922 26.4402 19.234 25.2096 19.234C24.1522 19.234 23.2162 19.0173 22.4016 18.584C21.6042 18.1507 20.9542 17.6047 20.4516 16.946V25.864H16.8116V4.596H20.4516V6.676ZM28.0696 11.746C28.0696 10.8793 27.8876 10.134 27.5236 9.51C27.1769 8.86867 26.7089 8.38333 26.1196 8.054C25.5476 7.72467 24.9236 7.56 24.2476 7.56C23.5889 7.56 22.9649 7.73333 22.3756 8.08C21.8036 8.40933 21.3356 8.89467 20.9716 9.536C20.6249 10.1773 20.4516 10.9313 20.4516 11.798C20.4516 12.6647 20.6249 13.4187 20.9716 14.06C21.3356 14.7013 21.8036 15.1953 22.3756 15.542C22.9649 15.8713 23.5889 16.036 24.2476 16.036C24.9236 16.036 25.5476 15.8627 26.1196 15.516C26.7089 15.1693 27.1769 14.6753 27.5236 14.034C27.8876 13.3927 28.0696 12.63 28.0696 11.746Z" fill="black"/>
</svg>
